<?xml version="1.0" encoding="UTF-8" standalone="no"?><!-- Generator: Gravit.io -->
<svg xmlns="http://www.w3.org/2000/svg"
  xmlns:xlink="http://www.w3.org/1999/xlink" style="isolation:isolate" viewBox="0 0 537.192 520.691" width="537.192" height="520.691">
  <defs>
    <clipPath id="_clipPath_2dgzLdBVg5zcmPM68dQ6INmi4wvlbbxv">
      <rect width="537.192" height="520.691"/>
    </clipPath>
  </defs>
  <g clip-path="url(#_clipPath_2dgzLdBVg5zcmPM68dQ6INmi4wvlbbxv)">
    <path d="M 299.971 3.941 L 515.996 110.698 C 534.821 120.001 542.552 142.838 533.249 161.663 L 366.294 499.496 C 356.991 518.321 334.154 526.052 315.329 516.749 L 99.304 409.992 C 80.479 400.689 72.748 377.852 82.051 359.027 L 249.006 21.194 C 258.309 2.369 281.146 -5.362 299.971 3.941 Z" style="stroke:none;fill:#6D6875;stroke-miterlimit:10;"/>
    <path d=" M 320.934 372.3 L 389.824 234.522 C 392.449 229.264 397.07 225.257 402.645 223.401 C 408.227 221.538 414.32 221.974 419.584 224.606 C 424.841 227.231 428.849 231.852 430.705 237.427 C 432.568 243.01 432.132 249.102 429.5 254.367 L 354.001 405.364 C 335.751 441.864 306.118 441.864 287.868 405.364 L 217.427 264.482 C 215.784 261.197 212.108 256.685 209.223 254.412 C 207.678 253.195 200.105 248.943 191.999 245.945 C 182.956 242.603 173.388 240.895 163.754 240.895 C 152.782 240.873 141.927 243.143 131.886 247.557 C 126.836 249.79 122.045 252.555 117.594 255.824 C 112.973 259.217 108.736 263.114 104.98 267.439 C 98.584 274.767 93.586 283.196 90.229 292.32 C 87.005 301.134 85.356 310.443 85.364 319.825 C 85.356 331.057 87.708 342.17 92.27 352.433 C 97.002 363.043 103.996 372.485 112.758 380.101 C 120.086 386.497 128.515 391.495 137.639 394.852 C 146.452 398.076 155.761 399.724 165.144 399.717 C 172.309 399.717 179.444 398.763 186.357 396.878 C 192.029 395.325 198.092 396.094 203.201 399.007 C 208.31 401.928 212.051 406.756 213.597 412.427 C 215.149 418.106 214.38 424.161 211.467 429.27 C 208.547 434.38 203.718 438.121 198.047 439.674 C 187.326 442.602 176.265 444.081 165.152 444.081 C 150.549 444.088 136.064 441.522 122.355 436.494 C 108.159 431.274 95.028 423.503 83.626 413.558 C 69.984 401.691 59.1 386.985 51.736 370.474 C 44.653 354.533 40.993 337.275 41 319.825 C 40.993 305.23 43.558 290.745 48.586 277.037 C 53.806 262.84 61.577 249.709 71.522 238.307 C 77.437 231.505 84.084 225.383 91.353 220.052 C 98.407 214.876 106 210.491 114 206.957 C 129.69 200.058 146.652 196.509 163.791 196.532 C 178.668 196.532 193.426 199.179 207.386 204.332 C 221.826 209.678 235.18 217.604 246.788 227.727 C 249.003 229.66 250.79 231.995 252.074 234.579 L 320.934 372.3 Z  M 222.43 363.93 L 183.3 285.68 C 181.6 284.86 179.86 284.11 178.08 283.45 C 173.5 281.76 168.65 280.89 163.76 280.9 C 163.74 280.9 163.73 280.9 163.71 280.9 L 163.58 280.9 C 158.22 280.9 152.92 282.01 148.02 284.16 C 145.63 285.22 143.36 286.53 141.26 288.07 C 139.01 289.72 136.96 291.61 135.14 293.71 C 131.95 297.36 129.46 301.56 127.78 306.1 C 126.18 310.48 125.37 315.1 125.36 319.76 L 125.36 319.82 L 125.36 319.89 C 125.36 325.49 126.54 331.04 128.81 336.16 C 131.17 341.45 134.66 346.15 139.03 349.94 C 142.68 353.13 146.88 355.62 151.42 357.3 C 155.8 358.9 160.42 359.72 165.08 359.72 L 165.13 359.72 C 165.13 359.72 165.14 359.72 165.15 359.72 C 168.75 359.72 172.34 359.24 175.82 358.29 C 181.16 356.83 186.67 356.09 192.21 356.09 C 202.78 356.09 213.19 358.79 222.43 363.93 Z  M 253.82 426.61 C 252.75 434.53 250.16 442.17 246.2 449.1 C 238.03 463.42 224.49 473.91 208.59 478.26 C 194.44 482.12 179.83 484.08 165.15 484.08 L 165.1 484.08 C 165.1 484.08 165.09 484.08 165.09 484.08 C 145.81 484.08 126.67 480.68 108.57 474.04 C 89.79 467.14 72.43 456.87 57.35 443.72 C 39.32 428.03 24.93 408.58 15.19 386.74 C 5.84 365.69 1 342.91 1 319.88 C 1 319.88 1 319.87 1 319.87 L 1 319.83 L 1 319.77 C 1 319.77 1 319.77 1 319.76 C 1 300.48 4.4 281.35 11.04 263.25 C 17.94 244.48 28.21 227.12 41.35 212.04 C 49.21 203.01 58.04 194.88 67.69 187.8 C 77.09 180.91 87.21 175.06 97.87 170.35 C 118.6 161.24 140.99 156.53 163.63 156.53 C 163.64 156.53 163.65 156.53 163.66 156.53 L 163.81 156.53 C 183.42 156.54 202.87 160.02 221.26 166.82 C 240.26 173.85 257.82 184.27 273.08 197.58 C 279.22 202.94 284.24 209.44 287.87 216.73 L 320.93 282.86 L 354.04 216.64 C 361.41 201.89 374.35 190.66 390 185.45 C 396.34 183.34 402.98 182.26 409.66 182.26 C 419.31 182.26 428.83 184.51 437.47 188.83 C 452.21 196.19 463.44 209.14 468.65 224.78 C 470.77 231.12 471.84 237.76 471.84 244.44 C 471.84 254.1 469.59 263.62 465.28 272.26 L 389.83 423.15 C 386.67 429.55 382.93 435.64 378.66 441.35 C 376.5 444.22 374.18 446.96 371.72 449.56 C 369.27 452.15 366.66 454.57 363.9 456.82 C 358.09 461.61 351.57 465.45 344.57 468.23 C 337.04 471.19 329.03 472.72 320.93 472.74 C 312.84 472.72 304.83 471.19 297.3 468.23 C 290.3 465.45 283.78 461.61 277.97 456.82 C 275.21 454.57 272.6 452.15 270.15 449.56 C 267.69 446.96 265.37 444.22 263.21 441.35 C 259.72 436.68 256.58 431.76 253.82 426.61 Z " fill-rule="evenodd" fill="rgb(109,104,117)"/>
    <path d=" M 252.074 234.579 C 250.79 231.995 249.003 229.66 246.788 227.727 C 235.18 217.604 221.826 209.678 207.386 204.332 C 193.426 199.179 178.668 196.532 163.791 196.532 C 146.652 196.509 129.69 200.058 114 206.957 C 106 210.491 98.407 214.876 91.353 220.052 C 84.084 225.383 77.437 231.505 71.522 238.307 C 61.577 249.709 53.806 262.84 48.586 277.037 C 43.558 290.745 40.993 305.23 41 319.825 C 40.993 337.275 44.653 354.533 51.736 370.474 C 59.1 386.985 69.984 401.691 83.626 413.558 C 95.028 423.503 108.159 431.274 122.355 436.494 C 136.064 441.522 150.549 444.088 165.152 444.081 C 176.265 444.081 187.326 442.602 198.047 439.674 C 203.718 438.121 208.547 434.38 211.467 429.27 C 214.38 424.161 215.149 418.106 213.597 412.427 C 212.051 406.756 208.31 401.928 203.201 399.007 C 198.092 396.094 192.029 395.325 186.357 396.878 C 179.444 398.763 172.309 399.717 165.144 399.717 C 155.761 399.724 146.452 398.076 137.639 394.852 C 128.515 391.495 120.086 386.497 112.758 380.101 C 103.996 372.485 97.002 363.043 92.27 352.433 C 87.708 342.17 85.356 331.057 85.364 319.825 C 85.356 310.443 87.005 301.134 90.229 292.32 C 93.586 283.196 98.584 274.767 104.98 267.439 C 108.736 263.114 112.973 259.217 117.594 255.824 C 122.045 252.555 126.836 249.79 131.886 247.557 C 141.927 243.143 152.782 240.873 163.754 240.895 C 173.388 240.895 182.956 242.603 191.999 245.945 C 200.105 248.943 207.678 253.195 209.223 254.412 C 212.108 256.685 215.784 261.197 217.427 264.482 L 287.868 405.364 C 306.118 441.864 335.751 441.864 354.001 405.364 L 429.5 254.367 C 432.132 249.102 432.568 243.01 430.705 237.427 C 428.849 231.852 424.841 227.231 419.584 224.606 C 414.32 221.974 408.227 221.538 402.645 223.401 C 397.07 225.257 392.449 229.264 389.824 234.522 L 320.934 372.3 L 252.074 234.579 Z " fill="rgb(255,255,255)"/>
  </g>
</svg>