<?xml version="1.0" encoding="UTF-8" standalone="no"?><!-- Generator: Gravit.io -->
<svg xmlns="http://www.w3.org/2000/svg"
  xmlns:xlink="http://www.w3.org/1999/xlink" style="isolation:isolate" viewBox="0 0 189 120" width="378px" height="240px">
  <defs>
    <clipPath id="_clipPath_XpbV9fAzfjuX99jt5hic5z3SLhOfhSz6">
      <rect width="189" height="120"/>
    </clipPath>
  </defs>
  <g clip-path="url(#_clipPath_XpbV9fAzfjuX99jt5hic5z3SLhOfhSz6)">
    <path d=" M 188.999 14.813 C 188.899 6.62 182.216 0 174 0 L 15 0 C 6.784 0 0.101 6.62 0.001 14.813 L 1.33 15.18 C 11.79 18.06 22.28 20.86 32.79 23.59 C 39.91 25.43 47.05 27.2 54.21 28.89 C 56.76 29.49 59.31 30.07 61.86 30.65 C 63.98 31.12 66.1 31.58 68.22 32.03 C 71.08 32.64 73.95 33.21 76.82 33.75 C 78.89 34.14 80.97 34.5 83.05 34.83 C 84.91 35.12 86.77 35.38 88.64 35.6 C 89.84 35.74 91.05 35.85 92.26 35.92 C 92.68 35.95 93.09 35.97 93.51 35.98 C 93.84 35.99 94.17 36 94.5 36 C 95.5 36 96.5 35.96 97.5 35.87 C 99.25 35.73 101 35.54 102.74 35.3 C 104.01 35.13 105.29 34.94 106.55 34.73 C 108.2 34.47 109.84 34.18 111.48 33.88 C 116.29 33 121.07 32.02 125.84 30.94 C 133.73 29.16 141.6 27.28 149.45 25.3 C 155.05 23.89 160.65 22.45 166.23 20.97 C 173.39 19.07 180.54 17.14 187.67 15.18 L 188.999 14.813 Z  M 189 25.185 L 189 105 C 189 113.279 182.279 120 174 120 L 15 120 C 6.721 120 0 113.279 0 105 L 0 25.186 C 10.078 27.957 20.175 30.645 30.28 33.27 C 37.48 35.13 44.69 36.92 51.92 38.62 C 54.5 39.23 57.08 39.82 59.67 40.4 C 61.83 40.89 63.99 41.36 66.15 41.82 C 69.09 42.44 72.02 43.02 74.97 43.58 C 77.14 43.99 79.31 44.36 81.5 44.71 C 83.48 45.02 85.47 45.29 87.47 45.53 C 88.86 45.7 90.25 45.82 91.65 45.91 C 92.16 45.94 92.67 45.96 93.18 45.98 C 93.62 45.99 94.06 46 94.5 46 C 95.78 46 97.06 45.95 98.33 45.84 C 100.26 45.68 102.17 45.47 104.08 45.21 C 105.45 45.03 106.8 44.82 108.16 44.6 C 109.87 44.32 111.58 44.03 113.29 43.71 C 118.23 42.81 123.14 41.8 128.04 40.7 C 136.01 38.9 143.97 37 151.89 35 C 157.54 33.58 163.17 32.13 168.79 30.64 C 175.535 28.848 182.272 27.03 189 25.185 Z " fill-rule="evenodd" fill="rgb(109,104,117)"/>
  </g>
</svg>